<?xml version="1.0" standalone="no"?>
<!DOCTYPE svg PUBLIC "-//W3C//DTD SVG 20010904//EN"
 "http://www.w3.org/TR/2001/REC-SVG-20010904/DTD/svg10.dtd">
<svg version="1.0" xmlns="http://www.w3.org/2000/svg"
 width="3498.000000pt" height="1269.000000pt" viewBox="0 0 3498.000000 1269.000000"
 preserveAspectRatio="xMidYMid meet">

<g transform="translate(0.000000,1269.000000) scale(0.100000,-0.100000)"
fill="#FFFFFF" stroke="none">
<path d="M17260 12665 c-670 -67 -1201 -273 -1606 -622 -392 -337 -637 -751
-753 -1273 -42 -185 -59 -334 -72 -610 -14 -291 -4 -7350 11 -7680 11 -248 28
-388 71 -585 74 -339 213 -650 403 -900 78 -103 259 -289 361 -372 404 -325
1018 -566 1560 -613 175 -15 509 -12 664 5 365 41 717 157 990 328 214 133
449 351 602 557 242 326 438 788 521 1230 l33 175 2 3340 c4 3667 -4 4699 -35
4905 -98 642 -356 1121 -813 1506 -404 342 -941 546 -1603 609 -171 17 -167
17 -336 0z m-305 -5877 c125 -41 220 -164 288 -373 58 -179 56 -128 63 -1628
7 -1462 7 -1465 -38 -1642 -60 -230 -190 -359 -387 -384 -139 -18 -242 19
-334 119 -91 98 -162 269 -199 480 -19 111 -19 2753 0 2855 56 293 154 488
277 553 91 47 223 56 330 20z"/>
<path d="M24590 12353 c-449 -2 -708 -7 -714 -13 -6 -6 -100 -10 -236 -10
-167 0 -229 -3 -238 -12 -9 -9 -43 -12 -116 -10 -84 3 -105 1 -115 -12 -10
-12 -31 -16 -77 -16 -36 0 -64 -4 -64 -10 0 -6 -28 -10 -62 -10 -40 -1 -70 -6
-82 -15 -11 -8 -41 -15 -67 -15 -26 0 -51 -4 -54 -10 -3 -5 -19 -10 -36 -10
-16 0 -29 -4 -29 -10 0 -5 -17 -10 -37 -10 -21 0 -47 -7 -57 -15 -11 -8 -37
-15 -58 -15 -21 0 -38 -4 -38 -10 0 -5 -13 -10 -29 -10 -17 0 -33 -4 -36 -10
-3 -5 -13 -10 -21 -10 -9 0 -22 -7 -30 -15 -9 -8 -26 -15 -39 -15 -13 0 -27
-4 -30 -10 -3 -5 -16 -10 -28 -10 -23 0 -129 -49 -135 -62 -2 -5 -12 -8 -22
-8 -10 0 -22 -4 -25 -10 -3 -5 -14 -10 -25 -10 -10 0 -20 -7 -24 -15 -3 -8
-12 -15 -20 -15 -9 0 -31 -9 -51 -20 -20 -11 -42 -20 -50 -20 -8 0 -15 -4 -15
-10 0 -5 -11 -12 -24 -16 -14 -3 -32 -14 -42 -25 -9 -10 -22 -19 -29 -19 -6 0
-24 -14 -41 -31 -16 -17 -46 -40 -66 -52 -21 -11 -38 -24 -38 -29 0 -4 -8 -8
-18 -8 -10 0 -49 -31 -87 -70 -38 -38 -74 -70 -80 -70 -13 0 -95 -82 -95 -96
0 -5 -31 -41 -70 -79 -38 -38 -70 -75 -70 -82 0 -8 -16 -29 -35 -47 -19 -19
-35 -41 -35 -49 0 -9 -11 -24 -25 -35 -14 -11 -25 -26 -25 -34 0 -8 -11 -25
-25 -38 -14 -13 -25 -32 -25 -42 0 -10 -4 -18 -10 -18 -5 0 -10 -6 -10 -12 0
-20 -53 -121 -72 -139 -10 -9 -18 -23 -18 -31 0 -9 -7 -21 -15 -28 -8 -7 -15
-25 -15 -41 0 -16 -4 -29 -10 -29 -5 0 -10 -9 -10 -19 0 -11 -4 -23 -10 -26
-5 -3 -10 -20 -10 -36 0 -17 -6 -32 -15 -35 -8 -4 -15 -14 -15 -24 0 -11 -4
-22 -10 -25 -5 -3 -10 -19 -10 -35 0 -16 -4 -32 -10 -35 -5 -3 -10 -17 -10
-29 0 -13 -7 -29 -15 -36 -8 -7 -15 -25 -15 -41 0 -15 -4 -31 -10 -34 -5 -3
-10 -24 -10 -45 0 -21 -4 -42 -10 -45 -5 -3 -10 -21 -10 -39 0 -18 -7 -41 -15
-52 -8 -11 -14 -41 -15 -71 0 -29 -4 -53 -10 -53 -5 0 -10 -24 -10 -54 0 -37
-5 -58 -16 -67 -12 -10 -15 -24 -10 -59 4 -31 1 -54 -9 -74 -11 -20 -15 -59
-15 -132 0 -58 -4 -106 -10 -109 -6 -4 -10 -91 -10 -229 0 -187 -2 -226 -15
-236 -13 -11 -15 -389 -15 -3291 0 -2179 3 -3279 10 -3279 6 0 10 -80 10 -219
0 -182 3 -221 15 -231 11 -9 15 -33 15 -86 0 -40 5 -76 10 -79 6 -3 10 -35 10
-70 0 -35 5 -67 10 -70 6 -3 10 -23 10 -44 0 -22 6 -44 15 -51 9 -7 15 -29 15
-51 0 -21 5 -41 10 -44 6 -3 10 -19 10 -36 0 -16 5 -29 10 -29 6 0 10 -13 10
-29 0 -16 7 -34 15 -41 8 -7 15 -23 15 -35 0 -13 9 -40 19 -62 11 -21 22 -45
25 -53 4 -8 15 -28 25 -45 11 -16 20 -38 20 -47 1 -9 4 -18 9 -20 8 -4 62
-109 62 -122 0 -5 11 -19 25 -32 14 -13 25 -30 25 -38 0 -8 5 -18 10 -21 6 -3
10 -14 10 -25 0 -10 7 -20 15 -24 8 -3 15 -14 15 -23 0 -10 9 -25 20 -33 11
-8 20 -22 20 -30 0 -9 11 -27 25 -40 14 -13 25 -29 25 -35 0 -6 11 -22 25 -35
14 -13 25 -30 25 -38 0 -7 20 -34 45 -59 25 -24 45 -50 45 -56 0 -15 191 -207
205 -207 6 0 28 -18 50 -40 22 -23 63 -52 90 -65 28 -13 59 -33 69 -44 11 -12
27 -21 38 -21 10 0 18 -4 18 -10 0 -5 6 -10 13 -10 18 0 75 -28 82 -41 4 -5
16 -9 29 -9 23 0 82 -25 90 -39 3 -4 22 -8 43 -9 21 -2 42 -7 47 -12 6 -6 27
-10 47 -10 21 0 41 -4 44 -10 4 -6 93 -10 236 -10 146 0 229 4 229 10 0 6 33
10 80 10 47 0 80 4 80 10 0 6 8 10 19 10 10 0 24 7 31 15 7 8 25 15 41 15 16
0 29 5 29 10 0 6 9 10 19 10 11 0 23 4 26 10 3 5 14 10 25 10 20 0 185 82 210
105 9 8 21 15 26 15 6 0 25 16 44 35 19 19 40 35 47 35 8 0 24 11 37 25 13 14
30 25 37 25 18 0 139 121 139 138 0 6 43 54 95 106 52 52 95 99 95 104 0 17
30 69 50 87 11 10 20 26 20 37 0 10 5 18 10 18 6 0 10 9 10 20 0 11 7 23 15
26 8 4 15 14 15 24 0 11 5 22 10 25 6 3 10 14 10 24 0 10 11 28 25 41 14 13
25 34 25 46 0 13 5 26 10 29 6 3 10 19 10 35 0 16 5 32 10 35 6 3 10 19 10 34
0 16 7 34 15 41 8 7 15 25 15 41 0 16 5 29 10 29 6 0 10 13 10 29 0 17 5 33
10 36 6 3 10 19 10 34 0 16 7 34 15 41 9 7 15 29 15 51 0 22 5 39 10 39 6 0
10 24 10 54 0 30 5 58 10 61 6 3 10 28 10 55 0 30 6 54 15 64 8 8 15 32 15 55
0 23 5 41 10 41 6 0 10 41 10 104 0 83 3 105 15 110 12 4 15 27 15 121 0 70 4
115 10 115 6 0 10 53 10 140 0 87 4 140 10 140 6 0 10 55 10 146 0 116 3 148
15 160 11 11 15 38 15 99 0 46 5 87 10 90 6 3 10 46 10 96 0 53 4 89 10 89 6
0 10 28 10 64 0 44 5 67 15 76 10 8 15 31 15 66 0 30 5 54 10 54 6 0 10 24 10
54 0 30 5 58 10 61 6 3 10 23 10 44 0 22 6 44 15 51 9 7 15 29 15 51 0 21 5
41 10 44 6 3 10 24 10 45 0 21 5 42 10 45 6 3 10 17 10 30 0 13 7 30 15 39 8
8 15 28 15 45 0 17 5 31 10 31 6 0 10 13 10 29 0 16 7 34 15 41 8 7 15 25 15
41 0 16 5 29 10 29 6 0 10 16 10 35 0 19 5 35 10 35 6 0 10 8 10 19 0 10 7 24
15 31 8 7 15 25 15 41 0 16 5 29 10 29 6 0 10 6 10 13 0 15 52 121 63 125 4 2
7 9 7 16 0 17 29 74 41 81 5 4 9 15 9 26 0 10 5 19 10 19 6 0 10 8 10 18 0 10
11 29 25 42 14 13 25 29 25 35 0 7 9 20 20 30 11 10 20 23 20 30 0 7 11 25 25
41 14 16 25 34 25 40 0 5 16 25 35 44 19 19 35 39 35 45 0 13 342 355 356 355
6 0 21 11 34 25 13 14 31 25 39 25 9 0 25 11 35 25 10 14 26 25 36 25 9 0 25
9 35 20 10 11 24 20 30 20 7 0 18 7 25 15 7 8 21 15 31 15 11 0 19 5 19 10 0
6 6 10 13 10 18 0 75 28 82 41 4 5 15 9 26 9 10 0 19 5 19 10 0 6 9 10 19 10
11 0 23 5 26 10 3 6 19 10 35 10 16 0 31 4 35 9 9 16 66 41 91 41 13 0 26 5
29 10 3 6 23 10 44 10 22 0 44 6 51 15 7 9 29 15 51 15 21 0 41 5 44 10 3 6
31 10 61 10 30 0 54 5 54 10 0 6 31 10 72 10 53 0 76 4 90 17 17 15 137 17
1586 24 862 4 2155 8 2875 8 864 1 1307 4 1307 11 0 6 40 10 99 10 56 0 103 4
106 10 3 6 37 10 75 10 51 0 69 4 74 15 4 11 21 15 61 15 30 0 55 5 55 10 0 6
24 10 54 10 30 0 58 5 61 10 3 6 19 10 34 10 16 0 34 7 41 15 7 9 29 15 51 15
21 0 41 4 44 10 3 6 19 10 36 10 16 0 29 5 29 10 0 6 13 10 29 10 16 0 34 7
41 15 7 8 21 15 31 15 11 0 19 5 19 10 0 6 11 10 24 10 12 0 44 11 70 25 26
14 58 25 72 25 13 0 24 5 24 10 0 6 8 10 19 10 10 0 24 7 31 15 7 8 18 15 25
15 7 0 18 7 25 15 11 13 35 26 90 49 8 3 29 15 45 25 17 11 36 20 43 20 7 1
28 17 46 36 19 19 40 35 48 35 8 0 25 11 38 25 13 14 29 25 37 25 7 0 31 20
54 45 23 25 47 45 55 45 16 0 304 284 304 300 0 6 23 35 50 64 28 29 50 56 50
61 0 4 11 20 25 37 14 16 25 35 25 42 0 6 9 18 20 26 11 8 20 22 20 31 0 9 11
25 25 35 14 10 25 23 25 28 0 17 34 86 42 86 4 0 8 8 8 19 0 10 7 25 16 32 9
7 20 22 25 34 5 11 13 27 18 35 5 8 21 41 36 72 14 32 30 60 36 63 5 4 9 17 9
30 0 14 9 40 20 60 11 20 20 42 20 49 0 7 7 19 15 26 8 7 15 25 15 41 0 16 5
29 10 29 6 0 10 13 10 29 0 16 7 34 15 41 8 7 15 25 15 41 0 16 5 29 10 29 6
0 10 16 10 35 0 19 5 35 10 35 6 0 10 13 10 29 0 16 7 34 15 41 9 7 15 29 15
51 0 21 5 41 10 44 6 3 10 24 10 45 0 21 5 42 10 45 6 3 10 23 10 44 0 22 6
44 15 51 10 9 15 32 15 76 0 34 5 66 10 69 6 3 10 31 10 61 0 30 5 54 10 54 6
0 10 28 10 64 0 44 5 67 15 76 11 10 15 36 15 111 0 54 4 101 10 104 6 4 10
80 10 195 0 115 -4 191 -10 195 -6 3 -10 50 -10 104 0 75 -4 101 -15 111 -10
8 -15 30 -15 61 0 26 -4 51 -10 54 -5 3 -10 35 -10 70 0 35 -4 67 -10 70 -5 3
-10 29 -10 56 0 32 -6 56 -15 65 -8 9 -15 31 -15 49 0 19 -4 37 -10 40 -5 3
-10 26 -10 51 0 24 -4 44 -10 44 -5 0 -10 18 -10 41 0 23 -7 47 -15 55 -8 9
-15 26 -15 39 0 13 -4 27 -10 30 -5 3 -10 19 -10 35 0 16 -4 32 -10 35 -5 3
-10 19 -10 34 0 16 -7 34 -15 41 -8 7 -15 23 -15 36 0 12 -4 26 -10 29 -5 3
-10 19 -10 35 0 16 -4 32 -10 35 -5 3 -10 14 -10 25 0 10 -7 20 -15 24 -9 3
-15 18 -15 35 0 16 -4 33 -10 36 -5 3 -10 15 -10 25 0 10 -3 20 -7 22 -7 3
-70 124 -87 168 -4 8 -15 29 -25 45 -11 17 -20 36 -20 43 -1 7 -10 23 -21 35
-21 22 -50 73 -50 88 0 4 -16 23 -35 42 -19 19 -35 41 -35 50 0 8 -11 24 -25
35 -14 11 -25 26 -25 34 0 8 -16 29 -35 48 -19 19 -35 39 -35 46 0 16 -337
354 -354 354 -7 0 -25 14 -42 31 -16 17 -44 37 -61 46 -18 8 -33 19 -33 24 0
5 -6 9 -14 9 -7 0 -31 16 -52 35 -21 19 -43 35 -50 35 -6 0 -17 7 -24 15 -7 8
-21 15 -31 15 -11 0 -19 5 -19 10 0 6 -7 10 -15 10 -18 0 -52 18 -82 43 -32
28 -135 77 -160 77 -13 0 -23 5 -23 10 0 6 -9 10 -20 10 -11 0 -23 7 -26 15
-4 9 -19 15 -40 15 -19 0 -34 5 -34 10 0 6 -9 10 -19 10 -11 0 -23 5 -26 10
-3 6 -17 10 -30 10 -13 0 -30 7 -39 15 -8 8 -32 15 -55 15 -23 0 -41 5 -41 10
0 6 -13 10 -29 10 -17 0 -33 5 -36 10 -3 6 -19 10 -34 10 -16 0 -34 7 -41 15
-8 10 -30 15 -61 15 -26 0 -51 5 -54 10 -3 6 -30 10 -60 10 -30 0 -57 5 -60
10 -3 6 -33 10 -65 10 -39 0 -64 5 -74 15 -11 11 -38 15 -110 15 -52 0 -98 4
-101 10 -4 6 -90 10 -225 10 -126 0 -220 4 -222 9 -4 13 -5479 31 -7158 24z"/>
<path d="M2350 11220 c-468 -35 -1070 -266 -1445 -553 -479 -368 -773 -887
-869 -1532 -36 -240 -37 -330 -34 -2400 4 -2276 -2 -2091 73 -2322 76 -232
188 -398 330 -488 l54 -35 302 0 302 0 46 27 c238 138 381 456 406 898 16 304
55 493 134 659 140 295 389 466 756 519 46 6 1452 12 4020 16 l3950 7 150 26
c282 49 506 122 729 236 222 113 469 301 630 480 37 43 112 122 166 177 312
320 485 696 584 1265 41 237 52 399 37 553 -46 490 -176 925 -370 1237 -74
118 -136 195 -277 341 -67 70 -136 145 -154 168 -53 66 -245 231 -370 317
-285 198 -593 318 -990 386 l-135 23 -3965 1 c-2181 1 -4008 -2 -4060 -6z
m7060 -2753 c282 -52 431 -151 489 -325 22 -66 30 -171 16 -232 -40 -182 -259
-323 -595 -382 -111 -19 -2753 -19 -2855 0 -230 44 -407 116 -490 199 -69 70
-98 138 -103 246 -6 127 22 210 97 287 111 113 342 201 581 220 52 4 698 6
1435 5 1163 -2 1351 -5 1425 -18z"/>
<path d="M13309 7702 c-238 -142 -379 -455 -404 -897 -16 -304 -55 -493 -134
-659 -140 -295 -389 -466 -756 -519 -46 -6 -1452 -12 -4020 -16 l-3950 -7
-150 -26 c-282 -49 -506 -122 -729 -236 -222 -113 -469 -301 -630 -480 -37
-43 -112 -122 -166 -177 -312 -320 -485 -696 -584 -1265 -41 -237 -52 -399
-37 -553 46 -490 176 -925 370 -1237 74 -118 136 -195 277 -341 67 -70 136
-145 154 -168 53 -66 245 -231 370 -317 287 -200 600 -321 995 -386 l140 -23
4025 0 4025 0 180 33 c451 84 911 281 1230 525 479 368 773 887 869 1532 36
240 37 330 34 2400 -4 2276 2 2091 -73 2322 -76 232 -188 398 -330 488 l-54
35 -303 0 -303 0 -46 -28z m-5324 -3615 c225 -49 380 -114 460 -194 69 -70 98
-138 103 -246 11 -224 -106 -357 -393 -450 -204 -66 -107 -62 -1635 -62 -1480
0 -1469 0 -1646 50 -190 54 -305 149 -353 293 -22 66 -30 171 -16 232 44 204
321 360 690 390 55 4 687 7 1405 6 1194 -2 1312 -3 1385 -19z"/>
<path d="M25210 4105 l0 -275 975 0 975 0 0 -455 0 -455 -722 0 c-412 0 -752
-5 -790 -10 -205 -30 -380 -195 -424 -399 -11 -54 -14 -249 -14 -1083 l0
-1018 1255 0 1255 0 0 520 0 520 -980 0 -980 0 2 458 3 457 775 6 c502 3 788
9 811 16 104 30 233 132 293 232 19 31 44 90 55 131 20 71 21 99 21 631 0 533
-1 560 -20 623 -42 134 -131 247 -245 311 -121 68 -73 65 -1214 65 l-1031 0 0
-275z"/>
<path d="M28580 4361 c-197 -53 -349 -232 -370 -438 -12 -114 -13 -2930 -1
-3044 11 -100 38 -172 92 -245 82 -111 171 -173 295 -204 78 -20 104 -20 890
-18 l809 3 65 24 c160 59 278 180 333 340 l22 66 3 1510 c2 982 -1 1533 -8
1576 -18 122 -73 223 -173 318 -63 60 -117 90 -201 112 -66 17 -124 19 -881
18 -741 0 -816 -2 -875 -18z m1580 -1721 l0 -1190 -700 0 -700 0 0 1190 0
1190 700 0 700 0 0 -1190z"/>
<path d="M29180 3135 l0 -275 280 0 280 0 -2 273 -3 272 -277 3 -278 2 0 -275z"/>
<path d="M31190 4105 l0 -275 980 0 980 0 0 -454 0 -455 -772 -3 -773 -3 -75
-33 c-152 -66 -254 -174 -305 -322 l-30 -85 -3 -1033 -3 -1032 1258 2 1258 3
3 518 2 517 -980 0 -980 0 0 460 0 460 753 0 c637 0 762 3 816 15 187 44 353
228 381 421 12 86 13 1043 0 1138 -24 187 -183 368 -367 416 -74 19 -107 20
-1110 20 l-1033 0 0 -275z"/>
</g>
</svg>
